:FULLY-SPECIFIED
:FORCE-ALL-JOINTS-BE-3DOF
:DEGREES
714
root -11.6995 13.9151 -38.3035 151.852 -61.6518 -146.616
lfemur -65.7039 24.9555 -1.21321
ltibia 75.8864 -0 0
lfoot -8.54974 -7.97586 -0.00233457
ltoes -2.77614 0 0
rfemur 9.17381 -10.5571 11.5751
rtibia 40.2897 -0 0
rfoot -25.2488 -26.5939 0.000201801
rtoes -28.6635 0 0
lowerback 12.2899 1.43842 8.8182
upperback -1.72338 3.48814 5.82619
thorax -8.64462 1.29014 0.645488
lowerneck -4.0214 4.916 0.815979
upperneck 3.39061 6.46929 0.95363
head 1.72585 3.25736 0.334849
lclavicle -2.02512e-15 -1.09332e-14 0
lhumerus 62.6763 14.1526 106.717
lradius 11.7108 -0 0
lwrist -76.3296 0 0
lhand -33.9365 42.4795 0.00414327
lfingers 7.12502 -0 0
lthumb -7.11825 72.3401 0.00397496
rclavicle -2.02512e-15 -1.09332e-14 0
rhumerus -75.3283 19.2812 -95.3804
rradius 114.751 -0 0
rwrist -66.9915 0 0
rhand -8.89094 -41.0557 -0.0294153
rfingers 7.12502 -0 0
rthumb 16.9908 -70.9143 0.159938
715
root -11.718 13.9096 -38.3053 511.849 -61.7512 213.576
lfemur -66.0161 24.9842 -1.30683
ltibia 76.1435 0 0
lfoot -8.71061 -7.96159 0
ltoes -2.88111 0 0
rfemur 9.3032 -10.5604 11.633
rtibia 40.0015 0 0
rfoot -25.1857 -26.6837 0
rtoes -29.248 0 0
lowerback 12.2268 1.43666 8.87247
upperback -1.73131 3.4857 5.83519
thorax -8.61478 1.28691 0.627392
lowerneck -3.92437 4.90705 0.903776
upperneck 3.33837 6.45654 0.886993
head 1.69679 3.25039 0.29516
lclavicle -2.02512e-15 -1.09332e-14 0
lhumerus 62.8865 14.1686 106.961
lradius 11.6491 0 0
lwrist -76.7008 0 0
lhand -33.9026 41.9464 0
lfingers 7.12502 0 0
lthumb -7.08551 71.8078 0
rclavicle -2.02512e-15 -1.09332e-14 0
rhumerus -75.335 19.2364 -95.4169
rradius 114.536 0 0
rwrist -66.4644 0 0
rhand -8.09128 -40.2427 0
rfingers 7.12502 0 0
rthumb 17.821 -69.4462 0
716
root -11.7239 13.9067 -38.3094 151.83 -61.8521 -146.214
lfemur -66.357 25.0403 -1.41758
ltibia 76.4509 -0 0
lfoot -8.91098 -7.97232 4.33818e-05
ltoes -2.97129 0 0
rfemur 9.45713 -10.5697 11.6798
rtibia 39.696 -0 0
rfoot -25.1162 -26.7729 -0.000224544
rtoes -29.8382 0 0
lowerback 12.1613 1.43125 8.93184
upperback -1.74206 3.47919 5.84892
thorax -8.58691 1.28139 0.612377
lowerneck -3.83216 4.89933 0.991727
upperneck 3.29071 6.44568 0.816119
head 1.67011 3.2443 0.254388
lclavicle -2.06239e-14 -4.17448e-15 0
lhumerus 63.0631 14.1729 107.143
lradius 11.6064 -0 0
lwrist -76.9908 0 0
lhand -33.8756 41.3652 -0.00542996
lfingers 7.12502 -0 0
lthumb -7.05943 71.2274 -0.00522968
rclavicle -2.06239e-14 -4.17448e-15 0
rhumerus -75.3487 19.1993 -95.4542
rradius 114.327 -0 0
rwrist -65.8869 0 0
rhand -7.21393 -39.3947 -0.00714604
rfingers 7.12502 -0 0
rthumb 18.665 -68.5217 -0.00699302
717
root -11.7299 13.9038 -38.3136 151.807 -61.9424 -146.032
lfemur -66.6415 25.0946 -1.51424
ltibia 76.6996 -0 0
lfoot -9.07956 -7.99714 7.23289e-05
ltoes -3.01831 0 0
rfemur 9.59087 -10.5794 11.7247
rtibia 39.4368 -0 0
rfoot -25.0516 -26.8586 -0.000363865
rtoes -30.3292 0 0
lowerback 12.1033 1.42583 8.98441
upperback -1.7517 3.47251 5.85942
thorax -8.56228 1.27607 0.597459
lowerneck -3.75976 4.89085 1.0624
upperneck 3.2561 6.43397 0.758695
head 1.65017 3.23793 0.221521
lclavicle -2.06239e-14 -4.17448e-15 0
lhumerus 63.1911 14.1642 107.249
lradius 11.5802 -0 0
lwrist -77.1953 0 0
lhand -33.8462 40.8444 -0.0100048
lfingers 7.12502 -0 0
lthumb -7.03105 70.7074 -0.00963459
rclavicle -2.06239e-14 -4.17448e-15 0
rhumerus -75.3588 19.1675 -95.4837
rradius 114.156 -0 0
rwrist -65.4147 0 0
rhand -6.49814 -38.7054 -0.0265717
rfingers 7.12502 -0 0
rthumb 19.3537 -67.7714 -0.0271071
